<?xml version="1.0" encoding="UTF-8" standalone="no"?>
<svg
   xmlns:dc="http://purl.org/dc/elements/1.1/"
   xmlns:cc="http://creativecommons.org/ns#"
   xmlns:rdf="http://www.w3.org/1999/02/22-rdf-syntax-ns#"
   xmlns:svg="http://www.w3.org/2000/svg"
   xmlns="http://www.w3.org/2000/svg"
   xmlns:sodipodi="http://sodipodi.sourceforge.net/DTD/sodipodi-0.dtd"
   xmlns:inkscape="http://www.inkscape.org/namespaces/inkscape"
   enable-background="new 0 0 55 55"
   height="55px"
   version="1.1"
   viewBox="0 0 55 55"
   width="55px"
   x="0px"
   xml:space="preserve"
   y="0px"
   id="svg2"
   inkscape:version="0.48.2 r9819"
   sodipodi:docname="activity-read.svg"><metadata
     id="metadata17"><rdf:RDF><cc:Work
         rdf:about=""><dc:format>image/svg+xml</dc:format><dc:type
           rdf:resource="http://purl.org/dc/dcmitype/StillImage" /></cc:Work></rdf:RDF></metadata><defs
     id="defs15" /><sodipodi:namedview
     pagecolor="#ffffff"
     bordercolor="#666666"
     borderopacity="1"
     objecttolerance="10"
     gridtolerance="10"
     guidetolerance="10"
     inkscape:pageopacity="0"
     inkscape:pageshadow="2"
     inkscape:window-width="1200"
     inkscape:window-height="804"
     id="namedview13"
     showgrid="false"
     inkscape:zoom="6.0682618"
     inkscape:cx="48.87041"
     inkscape:cy="29.001698"
     inkscape:window-x="0"
     inkscape:window-y="30"
     inkscape:window-maximized="1"
     inkscape:current-layer="svg2"
     showguides="true"
     inkscape:guide-bbox="true" /><g
     id="g3778"
     style="stroke:#ffffff"><g
       transform="matrix(0.86295964,0,0,0.90376554,0.46342957,3.5755746)"
       style="fill:none;stroke:#ffffff;stroke-opacity:1;display:block"
       id="activity-read"
       display="block">
	<path
   style="fill:none;stroke:#ffffff;stroke-width:3.50000000000000000;stroke-linejoin:round;stroke-opacity:1;display:inline"
   id="path5"
   display="inline"
   d="m 27.904,11.023 h -0.002 c 0,-0.002 -1.71,-2.053 -9.376,-2.504 C 10.86,8.07 6.843,10.121 6.84,10.122 4.942,10.741 3.345,11.857 3.345,13.616 v 27.702 c 0,2.025 1.235,3.494 3.495,3.494 0.003,0 4.41,-1.35 10.004,-1.35 5.589,-0.001 11.061,2.253 11.061,2.253"
   inkscape:connector-curvature="0" />
	<path
   style="fill:none;stroke:#ffffff;stroke-width:3.50000000000000000;stroke-linejoin:round;stroke-opacity:1;display:inline"
   id="path7"
   display="inline"
   d="m 27.898,11.023 0,0 c 0,-0.002 1.715,-2.053 9.377,-2.504 7.668,-0.449 11.686,1.602 11.688,1.603 1.897,0.619 3.494,1.735 3.494,3.494 v 27.702 c 0,2.025 -1.233,3.494 -3.494,3.494 -0.003,0 -4.409,-1.35 -10.004,-1.35 -5.589,-0.001 -11.062,2.253 -11.062,2.253"
   inkscape:connector-curvature="0" />

		<line
   style="fill:none;stroke:#ffffff;stroke-width:3.50000000000000000;stroke-linecap:round;stroke-linejoin:round;stroke-opacity:1;display:inline"
   id="line9"
   y2="45.716999"
   y1="11.023"
   x2="27.9"
   x1="27.898001"
   display="inline" />
	<path
   style="fill:none;stroke:#ffffff;stroke-width:3.50000000000000000;stroke-linecap:round;stroke-linejoin:round;stroke-opacity:1;display:inline"
   id="path11"
   display="inline"
   d="m 32.566,44.275 c 0,0 -0.031,2.906 -4.666,2.906 -4.632,0 -4.663,-2.906 -4.663,-2.906"
   inkscape:connector-curvature="0" />
</g><path
       d="m 45.719266,10.41501 -8.795285,12.196316 -1.80186,2.455531 -2.998785,7.470526 c -0.0397,0.09399 -0.01553,0.20154 0.05954,0.266611 0.0768,0.06507 0.182084,0.07592 0.264928,0.01807 l 6.753522,-4.552267 c 0.0095,-0.0072 0.0095,-0.0244 0.01899,-0.03886 0.05609,-0.04428 0.12254,-0.08315 0.16914,-0.14641 0.0026,-0.0018 0.02934,-0.03705 0.02934,-0.04428 l 1.580079,-2.052452 4.719527,-6.375162 6.913169,-9.334994 c 0.01899,-0.02079 0.128581,-0.183465 0.128581,-0.183465 0.08284,-0.1455059 0.127718,-0.3117985 0.127718,-0.502493 0,-0.05513 0,-0.1066444 -0.01035,-0.1590628 C 52.802438,8.7430441 52.2605,7.9124836 51.463125,7.251831 50.666613,6.5938897 49.763957,6.2369023 49.108971,6.3173374 48.827646,6.3552956 48.428096,6.6562495 48.428096,6.6562495 l -2.70883,3.7587605 z"
       id="path3060"
       inkscape:connector-curvature="0"
       style="fill:#fbffff;fill-opacity:1;stroke:#ffffff;stroke-width:3.09094428999999993;stroke-opacity:1" /></g></svg>