<?xml version="1.0" encoding="UTF-8" standalone="no"?>
<svg
   xmlns:dc="http://purl.org/dc/elements/1.1/"
   xmlns:cc="http://creativecommons.org/ns#"
   xmlns:rdf="http://www.w3.org/1999/02/22-rdf-syntax-ns#"
   xmlns:svg="http://www.w3.org/2000/svg"
   xmlns="http://www.w3.org/2000/svg"
   xmlns:sodipodi="http://sodipodi.sourceforge.net/DTD/sodipodi-0.dtd"
   xmlns:inkscape="http://www.inkscape.org/namespaces/inkscape"
   enable-background="new 0 0 55.125 55"
   height="55px"
   version="1.1"
   viewBox="0 0 55.125 55"
   width="55.125px"
   x="0px"
   xml:space="preserve"
   y="0px"
   id="svg3064"
   inkscape:version="0.48.2 r9819"
   sodipodi:docname="to-subjects.svg"><metadata
     id="metadata3075"><rdf:RDF><cc:Work
         rdf:about=""><dc:format>image/svg+xml</dc:format><dc:type
           rdf:resource="http://purl.org/dc/dcmitype/StillImage" /><dc:title /></cc:Work></rdf:RDF></metadata><defs
     id="defs3073" /><sodipodi:namedview
     pagecolor="#ffffff"
     bordercolor="#666666"
     borderopacity="1"
     objecttolerance="10"
     gridtolerance="10"
     guidetolerance="10"
     inkscape:pageopacity="0"
     inkscape:pageshadow="2"
     inkscape:window-width="1259"
     inkscape:window-height="577"
     id="namedview3071"
     showgrid="false"
     inkscape:zoom="4.42"
     inkscape:cx="-48.908088"
     inkscape:cy="27.5"
     inkscape:window-x="-69"
     inkscape:window-y="180"
     inkscape:window-maximized="0"
     inkscape:current-layer="svg3064" /><path
     style="fill:#ffffff;fill-opacity:1;stroke:#ffffff;stroke-width:1;stroke-linecap:round;stroke-linejoin:round;stroke-miterlimit:4;stroke-opacity:1;stroke-dasharray:none;stroke-dashoffset:0"
     d="m 14.436879,38.268868 c -2.404216,-0.606678 -4.116738,-3.002864 -3.980608,-5.569725 0.112321,-2.117889 0.213913,-2.251035 8.183576,-10.725027 7.960653,-8.464412 7.878233,-8.394261 10.024681,-8.532363 0.817203,-0.05258 1.299467,0.01998 2.053809,0.30903 0.934505,0.35808 1.37783,0.783438 8.515435,8.170308 5.435248,5.62506 7.650887,8.030081 7.965625,8.646487 0.377614,0.739548 0.436439,1.059802 0.439168,2.39099 0.0026,1.304543 -0.05865,1.662858 -0.405428,2.36863 -1.320483,2.687516 -4.285646,3.822604 -6.820824,2.611062 -0.851209,-0.406785 -1.699083,-1.210398 -6.209037,-5.884929 l -5.223205,-5.413809 -5.061938,5.379728 c -5.315289,5.648985 -5.706925,5.9829 -7.411095,6.318836 -1.020769,0.20122 -0.995023,0.202081 -2.070159,-0.06923 l 0,0 z"
     id="path3077"
     inkscape:connector-curvature="0" /></svg>